<svg version="1.1" id="Layer_1" xmlns="http://www.w3.org/2000/svg" xmlns:xlink="http://www.w3.org/1999/xlink" x="0px" y="0px"
	 width="100%" viewBox="0 0 900 180" enable-background="new 0 0 900 180" xml:space="preserve">
<path fill="#FEFEFE" opacity="1.000000" stroke="none" 
	d="
M1.000000,83.000000 
	C1.000000,55.672112 1.000000,28.344227 1.000000,1.012254 
	C300.934784,1.008170 600.869568,1.008170 900.902161,1.008170 
	C900.902161,60.922680 900.902161,120.845573 900.902161,180.884232 
	C601.000000,180.884232 301.000031,180.884232 1.000000,180.884232 
	C1.000000,149.917313 1.000000,118.923668 1.351630,87.502319 
	C13.827745,108.050179 25.952753,129.025452 38.076424,150.001495 
	C42.112904,156.985291 42.111343,156.986191 50.603138,155.414032 
	C49.969437,154.214844 49.397785,153.042587 48.747391,151.915756 
	C37.051258,131.651535 25.153116,111.500015 13.771094,91.061028 
	C10.752122,85.639786 7.592839,82.013252 1.000000,83.000000 
M275.530579,147.941132 
	C287.484100,155.031967 299.437622,162.122818 312.050873,169.605011 
	C312.050873,167.349777 312.057220,165.763168 312.049866,164.176605 
	C311.956421,144.017029 311.785706,123.857430 311.790222,103.697876 
	C311.793732,88.034645 312.089905,72.371155 312.024139,56.708744 
	C312.017578,55.143745 310.400208,53.585514 309.530426,52.024147 
	C308.387634,53.559486 307.201508,55.065739 306.136505,56.653248 
	C305.907471,56.994678 306.116089,57.629581 306.122742,58.129295 
	C306.218018,65.292969 306.359833,72.456406 306.396881,79.620384 
	C306.444641,88.857841 306.408508,98.095726 306.408508,108.544579 
	C272.106781,88.668533 238.724426,69.325233 204.938965,49.748344 
	C204.938965,51.943295 204.938126,53.739353 204.939087,55.535416 
	C204.957703,90.188850 204.955109,124.842323 205.034149,159.495621 
	C205.040802,162.413635 203.800934,166.925934 208.568512,166.753418 
	C213.084442,166.589981 211.305710,162.218887 211.324188,159.540207 
	C211.433197,143.748199 211.377853,127.955078 211.377853,111.301888 
	C232.595657,123.407829 253.752991,135.479279 275.530579,147.941132 
M469.291168,146.216324 
	C473.104492,151.465347 476.725922,156.872345 480.842163,161.871948 
	C482.162720,163.475861 484.776276,164.853241 486.822571,164.887619 
	C501.807159,165.139496 516.797974,165.031128 531.786804,165.008987 
	C532.993042,165.007202 534.199036,164.800354 534.777893,164.746796 
	C521.124390,147.167603 507.496826,129.621811 493.720215,111.884132 
	C503.942810,101.371765 513.477295,91.609047 522.950500,81.787262 
	C524.693665,79.979965 527.493774,78.186890 524.286316,75.289520 
	C521.314758,72.605240 519.401367,74.968117 517.632629,76.891846 
	C515.044006,79.707359 512.712952,82.757744 510.200287,85.645546 
	C503.924744,92.858040 497.608704,100.035339 491.072723,107.496346 
	C485.716339,99.945908 480.120178,93.418350 476.100677,86.032722 
	C471.502625,77.584084 465.375885,75.147881 456.056458,75.775810 
	C443.033752,76.653267 429.907745,75.997040 417.008606,75.997040 
	C429.273682,92.134842 441.377655,108.060715 453.723511,124.304855 
	C442.988678,135.188019 432.815979,145.490112 422.660461,155.809113 
	C421.144379,157.349564 419.231293,158.755524 418.395050,160.623550 
	C417.783295,161.990143 418.109863,164.424454 419.025574,165.594269 
	C419.613678,166.345581 422.586304,166.309250 423.519653,165.502823 
	C426.008667,163.352219 427.957886,160.581131 430.148773,158.080414 
	C438.762115,148.249100 447.385925,138.426910 456.285370,128.282715 
	C460.883453,134.606140 464.888855,140.114502 469.291168,146.216324 
M363.184509,155.763763 
	C363.184509,144.981186 363.184509,134.198593 363.184509,122.914383 
	C381.308441,122.914383 399.206024,122.914383 417.480652,122.914383 
	C417.369080,120.437119 417.350677,118.470825 417.181671,116.517563 
	C415.566406,97.849617 406.038269,84.578735 388.854614,77.577049 
	C371.478119,70.496765 354.894287,73.292297 340.914276,85.770058 
	C327.038666,98.154648 321.791870,114.077271 326.697327,132.313690 
	C331.616638,150.601822 343.623047,162.551849 362.351013,165.923950 
	C382.714325,169.590515 399.543549,162.051834 412.953339,146.585526 
	C413.802490,145.606201 414.700958,144.292892 414.755524,143.097504 
	C414.822510,141.629684 414.453918,139.541138 413.467712,138.814072 
	C412.661987,138.220062 410.296387,138.783600 409.292175,139.629272 
	C407.544800,141.100739 406.386047,143.248398 404.854553,145.002594 
	C395.960358,155.190125 385.359802,162.028290 371.274994,161.977722 
	C367.400787,161.963806 364.437347,160.675903 363.184509,155.763763 
M579.864258,70.368675 
	C585.059265,63.649796 590.343567,56.997379 595.413208,50.185173 
	C598.115234,46.554340 601.278687,44.714092 605.982971,44.943123 
	C612.630737,45.266766 619.307007,45.090466 625.969360,45.001259 
	C631.520386,44.926933 635.160278,41.664516 634.976685,37.151253 
	C634.799133,32.784138 631.396423,30.054855 625.861938,30.013723 
	C618.199280,29.956776 610.535767,30.018690 602.872742,29.993828 
	C595.385254,29.969536 589.340515,32.824665 584.715393,38.766487 
	C577.554932,47.965305 570.313904,57.101307 563.129089,66.281219 
	C559.104370,71.423660 556.869019,77.258156 556.842529,83.811028 
	C556.780701,99.136490 556.631287,114.464928 556.857666,129.787140 
	C557.035706,141.840378 566.757080,151.604477 578.868469,151.921661 
	C590.022217,152.213760 601.193970,152.179871 612.349731,151.930725 
	C622.519836,151.703613 632.864075,143.801239 633.651001,134.162537 
	C634.644775,121.989449 633.890930,109.673683 633.890930,96.999344 
	C624.076172,96.999344 614.447693,96.971725 604.819458,97.009468 
	C598.827698,97.032951 595.626282,99.641983 595.571594,104.407349 
	C595.516113,109.239906 598.684387,111.942467 604.621704,112.012535 
	C609.372559,112.068619 614.124695,112.023865 618.998047,112.023865 
	C618.998047,117.813828 619.047241,122.808739 618.985718,127.802277 
	C618.907776,134.121582 616.119263,136.941940 609.823792,136.982971 
	C600.661804,137.042664 591.499023,137.018021 582.336670,136.992844 
	C574.830750,136.972214 572.181641,134.320740 572.161072,126.758621 
	C572.129333,115.097450 572.550354,103.417870 572.016541,91.781090 
	C571.640381,83.580505 573.599548,76.692245 579.864258,70.368675 
M686.315979,121.304520 
	C685.770752,117.461136 688.456482,118.022903 690.762756,118.023788 
	C706.919495,118.029953 723.076355,118.059540 739.232910,118.009987 
	C745.629639,117.990372 748.536926,115.241547 748.668823,109.009560 
	C748.795715,103.016556 748.917053,97.005524 748.608459,91.024727 
	C747.834900,76.033417 733.933655,63.027451 718.914917,62.999252 
	C712.418945,62.987057 705.920288,62.880428 699.427490,63.023865 
	C685.313477,63.335674 670.932434,77.966324 670.888855,91.963104 
	C670.858276,101.790298 671.878296,111.743874 670.652527,121.415848 
	C668.734863,136.546799 688.864746,152.775528 701.449768,152.140244 
	C713.910339,151.511246 726.427490,152.021881 738.919739,151.994415 
	C744.909302,151.981247 748.720032,148.926910 748.617920,144.331436 
	C748.518066,139.837708 744.939819,137.023590 739.132996,137.007248 
	C727.307007,136.973969 715.480774,137.019669 703.654785,136.988968 
	C695.336548,136.967361 687.637573,130.332031 686.315979,121.304520 
M860.055603,100.477951 
	C859.779968,94.825455 859.765076,89.145576 859.174744,83.526154 
	C857.933167,71.708107 848.492371,63.531841 836.614807,62.923264 
	C826.257629,62.392601 816.812439,64.351662 808.331848,70.556236 
	C805.766541,72.433060 802.828308,73.800011 799.673706,75.624390 
	C799.480164,74.086472 799.362000,73.446930 799.324402,72.802689 
	C798.952087,66.429268 796.363525,63.078362 791.751099,63.021660 
	C786.932373,62.962418 783.987244,66.739685 783.981506,73.150879 
	C783.961121,96.137428 783.959412,119.124016 783.983582,142.110550 
	C783.989990,148.208710 786.824707,151.853897 791.505310,151.984116 
	C796.311401,152.117844 799.273376,148.366013 799.301758,141.969788 
	C799.339539,133.474915 799.254150,124.979256 799.329651,116.484894 
	C799.393066,109.354691 797.436218,101.097153 800.382935,95.419418 
	C803.230896,89.931816 811.319458,87.259117 816.887024,83.059540 
	C821.904297,79.275032 827.247864,77.592270 833.594360,77.931252 
	C841.666077,78.362381 843.706787,80.161591 844.006836,88.425667 
	C844.665222,106.564445 845.366089,124.701935 846.136292,142.836258 
	C846.390747,148.826813 849.656494,152.286087 854.413086,151.982773 
	C859.191956,151.678024 861.863159,147.865265 861.620483,141.897980 
	C861.072266,128.421448 860.579956,114.942665 860.055603,100.477951 
M115.854286,141.375717 
	C136.834259,105.011055 157.814224,68.646385 178.875900,32.140118 
	C170.215240,30.591379 170.228271,30.598898 166.281555,37.440395 
	C147.764740,69.538673 129.236481,101.630333 110.721291,133.729553 
	C106.765793,140.587067 106.807022,140.812515 112.462662,147.150192 
	C113.504913,145.355865 114.482529,143.672806 115.854286,141.375717 
M151.515228,47.055393 
	C154.361328,42.106800 157.207443,37.158211 160.094345,32.138687 
	C153.649033,30.212860 150.250427,32.211681 147.204102,37.635910 
	C132.226166,64.305290 116.770790,90.706520 101.485916,117.203537 
	C97.451942,124.196617 97.455101,124.198441 102.984734,131.125717 
	C119.091652,103.209839 135.111328,75.445160 151.515228,47.055393 
M100.674644,86.126068 
	C97.599457,91.445290 94.516624,96.760117 91.451118,102.084915 
	C88.099205,107.907234 88.382034,109.449615 93.781639,114.570869 
	C109.608276,87.144753 125.416458,59.750591 141.331177,32.171818 
	C132.727982,30.614302 132.728943,30.614859 128.939667,37.169563 
	C119.631020,53.271709 110.321396,69.373283 100.674644,86.126068 
M86.929115,120.538658 
	C80.866600,110.038979 74.806595,99.537834 68.740662,89.040131 
	C64.860504,82.325157 64.769516,82.290436 56.420849,83.982224 
	C57.320026,85.634941 58.145203,87.234184 59.043896,88.790985 
	C70.917442,109.359352 82.803726,129.920380 94.681213,150.486496 
	C98.403938,156.932449 98.954651,157.161346 106.963989,155.265472 
	C100.367996,143.867828 93.807922,132.532288 86.929115,120.538658 
M52.548260,110.011627 
	C60.280167,123.400375 68.380585,136.595383 75.569626,150.269531 
	C78.609772,156.052155 82.399216,156.867126 88.234550,155.621140 
	C87.351822,153.977509 86.625748,152.535599 85.820343,151.139465 
	C73.857903,130.402847 61.667858,109.792648 50.062286,88.858376 
	C47.041401,83.409264 43.505356,82.259796 37.509941,83.859352 
	C42.467243,92.516876 47.302452,100.961166 52.548260,110.011627 
M51.379559,124.060280 
	C44.572800,112.243187 37.767990,100.424973 30.958479,88.609467 
	C27.414934,82.460892 26.669388,82.173119 18.954597,84.068016 
	C19.750179,85.556892 20.478354,87.017639 21.292614,88.428719 
	C33.178944,109.027084 45.077778,129.618240 56.971287,150.212463 
	C60.862404,156.950104 60.859318,156.951889 69.440598,155.378738 
	C63.510040,145.053085 57.654640,134.858292 51.379559,124.060280 
M121.623474,33.844849 
	C121.673737,33.234917 121.979767,32.234856 121.735252,32.074551 
	C118.836296,30.173983 113.375725,31.636496 111.547920,34.792839 
	C101.793282,51.637615 92.356712,68.676933 82.165970,85.252945 
	C78.800392,90.727303 80.209915,94.189911 84.200485,98.665169 
	C96.669472,77.036995 108.935455,55.760948 121.623474,33.844849 
z"/>
<path fill="#23313E" opacity="1.000000" stroke="none" 
	d="
M1.000000,83.399994 
	C7.592839,82.013252 10.752122,85.639786 13.771094,91.061028 
	C25.153116,111.500015 37.051258,131.651535 48.747391,151.915756 
	C49.397785,153.042587 49.969437,154.214844 50.603138,155.414032 
	C42.111343,156.986191 42.112904,156.985291 38.076424,150.001495 
	C25.952753,129.025452 13.827745,108.050179 1.351630,87.037308 
	C1.000000,85.933327 1.000000,84.866661 1.000000,83.399994 
z"/>
<path fill="#030303" opacity="1.000000" stroke="none" 
	d="
M275.220459,147.745926 
	C253.752991,135.479279 232.595657,123.407829 211.377853,111.301888 
	C211.377853,127.955078 211.433197,143.748199 211.324188,159.540207 
	C211.305710,162.218887 213.084442,166.589981 208.568512,166.753418 
	C203.800934,166.925934 205.040802,162.413635 205.034149,159.495621 
	C204.955109,124.842323 204.957703,90.188850 204.939087,55.535416 
	C204.938126,53.739353 204.938965,51.943295 204.938965,49.748344 
	C238.724426,69.325233 272.106781,88.668533 306.408508,108.544579 
	C306.408508,98.095726 306.444641,88.857841 306.396881,79.620384 
	C306.359833,72.456406 306.218018,65.292969 306.122742,58.129295 
	C306.116089,57.629581 305.907471,56.994678 306.136505,56.653248 
	C307.201508,55.065739 308.387634,53.559486 309.530426,52.024147 
	C310.400208,53.585514 312.017578,55.143745 312.024139,56.708744 
	C312.089905,72.371155 311.793732,88.034645 311.790222,103.697876 
	C311.785706,123.857430 311.956421,144.017029 312.049866,164.176605 
	C312.057220,165.763168 312.050873,167.349777 312.050873,169.605011 
	C299.437622,162.122818 287.484100,155.031967 275.220459,147.745926 
z"/>
<path fill="#020202" opacity="1.000000" stroke="none" 
	d="
M469.092712,145.919586 
	C464.888855,140.114502 460.883453,134.606140 456.285370,128.282715 
	C447.385925,138.426910 438.762115,148.249100 430.148773,158.080414 
	C427.957886,160.581131 426.008667,163.352219 423.519653,165.502823 
	C422.586304,166.309250 419.613678,166.345581 419.025574,165.594269 
	C418.109863,164.424454 417.783295,161.990143 418.395050,160.623550 
	C419.231293,158.755524 421.144379,157.349564 422.660461,155.809113 
	C432.815979,145.490112 442.988678,135.188019 453.723511,124.304855 
	C441.377655,108.060715 429.273682,92.134842 417.008606,75.997040 
	C429.907745,75.997040 443.033752,76.653267 456.056458,75.775810 
	C465.375885,75.147881 471.502625,77.584084 476.100677,86.032722 
	C480.120178,93.418350 485.716339,99.945908 491.072723,107.496346 
	C497.608704,100.035339 503.924744,92.858040 510.200287,85.645546 
	C512.712952,82.757744 515.044006,79.707359 517.632629,76.891846 
	C519.401367,74.968117 521.314758,72.605240 524.286316,75.289520 
	C527.493774,78.186890 524.693665,79.979965 522.950500,81.787262 
	C513.477295,91.609047 503.942810,101.371765 493.720215,111.884132 
	C507.496826,129.621811 521.124390,147.167603 534.777893,164.746796 
	C534.199036,164.800354 532.993042,165.007202 531.786804,165.008987 
	C516.797974,165.031128 501.807159,165.139496 486.822571,164.887619 
	C484.776276,164.853241 482.162720,163.475861 480.842163,161.871948 
	C476.725922,156.872345 473.104492,151.465347 469.092712,145.919586 
z"/>
<path fill="#020202" opacity="1.000000" stroke="none" 
	d="
M363.250366,156.189087 
	C364.437347,160.675903 367.400787,161.963806 371.274994,161.977722 
	C385.359802,162.028290 395.960358,155.190125 404.854553,145.002594 
	C406.386047,143.248398 407.544800,141.100739 409.292175,139.629272 
	C410.296387,138.783600 412.661987,138.220062 413.467712,138.814072 
	C414.453918,139.541138 414.822510,141.629684 414.755524,143.097504 
	C414.700958,144.292892 413.802490,145.606201 412.953339,146.585526 
	C399.543549,162.051834 382.714325,169.590515 362.351013,165.923950 
	C343.623047,162.551849 331.616638,150.601822 326.697327,132.313690 
	C321.791870,114.077271 327.038666,98.154648 340.914276,85.770058 
	C354.894287,73.292297 371.478119,70.496765 388.854614,77.577049 
	C406.038269,84.578735 415.566406,97.849617 417.181671,116.517563 
	C417.350677,118.470825 417.369080,120.437119 417.480652,122.914383 
	C399.206024,122.914383 381.308441,122.914383 363.184509,122.914383 
	C363.184509,134.198593 363.184509,144.981186 363.250366,156.189087 
M382.238556,117.994186 
	C382.800964,117.373413 383.849792,116.755234 383.853088,116.131462 
	C383.906342,106.133934 384.003693,96.130318 383.701080,86.139900 
	C383.551056,81.187302 380.165405,79.083008 373.589478,79.020927 
	C366.489563,78.953911 363.437958,80.770676 363.270660,86.280571 
	C362.953735,96.720024 363.178955,107.175926 363.178955,118.001175 
	C369.364105,118.001175 375.321686,118.001175 382.238556,117.994186 
z"/>
<path fill="#F2672B" opacity="1.000000" stroke="none" 
	d="
M579.639648,70.646637 
	C573.599548,76.692245 571.640381,83.580505 572.016541,91.781090 
	C572.550354,103.417870 572.129333,115.097450 572.161072,126.758621 
	C572.181641,134.320740 574.830750,136.972214 582.336670,136.992844 
	C591.499023,137.018021 600.661804,137.042664 609.823792,136.982971 
	C616.119263,136.941940 618.907776,134.121582 618.985718,127.802277 
	C619.047241,122.808739 618.998047,117.813828 618.998047,112.023865 
	C614.124695,112.023865 609.372559,112.068619 604.621704,112.012535 
	C598.684387,111.942467 595.516113,109.239906 595.571594,104.407349 
	C595.626282,99.641983 598.827698,97.032951 604.819458,97.009468 
	C614.447693,96.971725 624.076172,96.999344 633.890930,96.999344 
	C633.890930,109.673683 634.644775,121.989449 633.651001,134.162537 
	C632.864075,143.801239 622.519836,151.703613 612.349731,151.930725 
	C601.193970,152.179871 590.022217,152.213760 578.868469,151.921661 
	C566.757080,151.604477 557.035706,141.840378 556.857666,129.787140 
	C556.631287,114.464928 556.780701,99.136490 556.842529,83.811028 
	C556.869019,77.258156 559.104370,71.423660 563.129089,66.281219 
	C570.313904,57.101307 577.554932,47.965305 584.715393,38.766487 
	C589.340515,32.824665 595.385254,29.969536 602.872742,29.993828 
	C610.535767,30.018690 618.199280,29.956776 625.861938,30.013723 
	C631.396423,30.054855 634.799133,32.784138 634.976685,37.151253 
	C635.160278,41.664516 631.520386,44.926933 625.969360,45.001259 
	C619.307007,45.090466 612.630737,45.266766 605.982971,44.943123 
	C601.278687,44.714092 598.115234,46.554340 595.413208,50.185173 
	C590.343567,56.997379 585.059265,63.649796 579.639648,70.646637 
z"/>
<path fill="#F2682B" opacity="1.000000" stroke="none" 
	d="
M686.318237,121.717300 
	C687.637573,130.332031 695.336548,136.967361 703.654785,136.988968 
	C715.480774,137.019669 727.307007,136.973969 739.132996,137.007248 
	C744.939819,137.023590 748.518066,139.837708 748.617920,144.331436 
	C748.720032,148.926910 744.909302,151.981247 738.919739,151.994415 
	C726.427490,152.021881 713.910339,151.511246 701.449768,152.140244 
	C688.864746,152.775528 668.734863,136.546799 670.652527,121.415848 
	C671.878296,111.743874 670.858276,101.790298 670.888855,91.963104 
	C670.932434,77.966324 685.313477,63.335674 699.427490,63.023865 
	C705.920288,62.880428 712.418945,62.987057 718.914917,62.999252 
	C733.933655,63.027451 747.834900,76.033417 748.608459,91.024727 
	C748.917053,97.005524 748.795715,103.016556 748.668823,109.009560 
	C748.536926,115.241547 745.629639,117.990372 739.232910,118.009987 
	C723.076355,118.059540 706.919495,118.029953 690.762756,118.023788 
	C688.456482,118.022903 685.770752,117.461136 686.318237,121.717300 
M688.098877,86.113892 
	C687.453369,91.563622 686.807922,97.013351 686.130249,102.734734 
	C702.496094,102.734734 717.695984,102.734734 733.371643,102.734734 
	C733.371643,100.195557 733.375244,97.912636 733.371033,95.629730 
	C733.350220,84.366898 726.909668,78.030365 715.482300,78.027756 
	C712.824829,78.027153 710.122681,78.340607 707.518250,77.968979 
	C699.701599,76.853584 693.573608,79.642654 688.098877,86.113892 
z"/>
<path fill="#F2682B" opacity="1.000000" stroke="none" 
	d="
M860.060303,100.971375 
	C860.579956,114.942665 861.072266,128.421448 861.620483,141.897980 
	C861.863159,147.865265 859.191956,151.678024 854.413086,151.982773 
	C849.656494,152.286087 846.390747,148.826813 846.136292,142.836258 
	C845.366089,124.701935 844.665222,106.564445 844.006836,88.425667 
	C843.706787,80.161591 841.666077,78.362381 833.594360,77.931252 
	C827.247864,77.592270 821.904297,79.275032 816.887024,83.059540 
	C811.319458,87.259117 803.230896,89.931816 800.382935,95.419418 
	C797.436218,101.097153 799.393066,109.354691 799.329651,116.484894 
	C799.254150,124.979256 799.339539,133.474915 799.301758,141.969788 
	C799.273376,148.366013 796.311401,152.117844 791.505310,151.984116 
	C786.824707,151.853897 783.989990,148.208710 783.983582,142.110550 
	C783.959412,119.124016 783.961121,96.137428 783.981506,73.150879 
	C783.987244,66.739685 786.932373,62.962418 791.751099,63.021660 
	C796.363525,63.078362 798.952087,66.429268 799.324402,72.802689 
	C799.362000,73.446930 799.480164,74.086472 799.673706,75.624390 
	C802.828308,73.800011 805.766541,72.433060 808.331848,70.556236 
	C816.812439,64.351662 826.257629,62.392601 836.614807,62.923264 
	C848.492371,63.531841 857.933167,71.708107 859.174744,83.526154 
	C859.765076,89.145576 859.779968,94.825455 860.060303,100.971375 
z"/>
<path fill="#F26B2F" opacity="1.000000" stroke="none" 
	d="
M115.657211,141.682739 
	C114.482529,143.672806 113.504913,145.355865 112.462662,147.150192 
	C106.807022,140.812515 106.765793,140.587067 110.721291,133.729553 
	C129.236481,101.630333 147.764740,69.538673 166.281555,37.440395 
	C170.228271,30.598898 170.215240,30.591379 178.875900,32.140118 
	C157.814224,68.646385 136.834259,105.011055 115.657211,141.682739 
z"/>
<path fill="#F26B2F" opacity="1.000000" stroke="none" 
	d="
M151.323120,47.367939 
	C135.111328,75.445160 119.091652,103.209839 102.984734,131.125717 
	C97.455101,124.198441 97.451942,124.196617 101.485916,117.203537 
	C116.770790,90.706520 132.226166,64.305290 147.204102,37.635910 
	C150.250427,32.211681 153.649033,30.212860 160.094345,32.138687 
	C157.207443,37.158211 154.361328,42.106800 151.323120,47.367939 
z"/>
<path fill="#F26B30" opacity="1.000000" stroke="none" 
	d="
M100.843414,85.800583 
	C110.321396,69.373283 119.631020,53.271709 128.939667,37.169563 
	C132.728943,30.614859 132.727982,30.614302 141.331177,32.171818 
	C125.416458,59.750591 109.608276,87.144753 93.781639,114.570869 
	C88.382034,109.449615 88.099205,107.907234 91.451118,102.084915 
	C94.516624,96.760117 97.599457,91.445290 100.843414,85.800583 
z"/>
<path fill="#24313E" opacity="1.000000" stroke="none" 
	d="
M87.088486,120.867691 
	C93.807922,132.532288 100.367996,143.867828 106.963989,155.265472 
	C98.954651,157.161346 98.403938,156.932449 94.681213,150.486496 
	C82.803726,129.920380 70.917442,109.359352 59.043896,88.790985 
	C58.145203,87.234184 57.320026,85.634941 56.420849,83.982224 
	C64.769516,82.290436 64.860504,82.325157 68.740662,89.040131 
	C74.806595,99.537834 80.866600,110.038979 87.088486,120.867691 
z"/>
<path fill="#24313E" opacity="1.000000" stroke="none" 
	d="
M52.342957,109.708542 
	C47.302452,100.961166 42.467243,92.516876 37.509941,83.859352 
	C43.505356,82.259796 47.041401,83.409264 50.062286,88.858376 
	C61.667858,109.792648 73.857903,130.402847 85.820343,151.139465 
	C86.625748,152.535599 87.351822,153.977509 88.234550,155.621140 
	C82.399216,156.867126 78.609772,156.052155 75.569626,150.269531 
	C68.380585,136.595383 60.280167,123.400375 52.342957,109.708542 
z"/>
<path fill="#24313E" opacity="1.000000" stroke="none" 
	d="
M51.589401,124.361893 
	C57.654640,134.858292 63.510040,145.053085 69.440598,155.378738 
	C60.859318,156.951889 60.862404,156.950104 56.971287,150.212463 
	C45.077778,129.618240 33.178944,109.027084 21.292614,88.428719 
	C20.478354,87.017639 19.750179,85.556892 18.954597,84.068016 
	C26.669388,82.173119 27.414934,82.460892 30.958479,88.609467 
	C37.767990,100.424973 44.572800,112.243187 51.589401,124.361893 
z"/>
<path fill="#F26B30" opacity="1.000000" stroke="none" 
	d="
M121.412460,34.164875 
	C108.935455,55.760948 96.669472,77.036995 84.200485,98.665169 
	C80.209915,94.189911 78.800392,90.727303 82.165970,85.252945 
	C92.356712,68.676933 101.793282,51.637615 111.547920,34.792839 
	C113.375725,31.636496 118.836296,30.173983 121.735252,32.074551 
	C121.979767,32.234856 121.673737,33.234917 121.412460,34.164875 
z"/>
<path fill="#FCFCFC" opacity="1.000000" stroke="none" 
	d="
M381.758911,117.997681 
	C375.321686,118.001175 369.364105,118.001175 363.178955,118.001175 
	C363.178955,107.175926 362.953735,96.720024 363.270660,86.280571 
	C363.437958,80.770676 366.489563,78.953911 373.589478,79.020927 
	C380.165405,79.083008 383.551056,81.187302 383.701080,86.139900 
	C384.003693,96.130318 383.906342,106.133934 383.853088,116.131462 
	C383.849792,116.755234 382.800964,117.373413 381.758911,117.997681 
z"/>
<path fill="#FFFEFE" opacity="1.000000" stroke="none" 
	d="
M688.352539,85.810349 
	C693.573608,79.642654 699.701599,76.853584 707.518250,77.968979 
	C710.122681,78.340607 712.824829,78.027153 715.482300,78.027756 
	C726.909668,78.030365 733.350220,84.366898 733.371033,95.629730 
	C733.375244,97.912636 733.371643,100.195557 733.371643,102.734734 
	C717.695984,102.734734 702.496094,102.734734 686.130249,102.734734 
	C686.807922,97.013351 687.453369,91.563622 688.352539,85.810349 
z"/>
</svg>